<?xml version="1.0" standalone="no"?>
<!DOCTYPE svg PUBLIC "-//W3C//DTD SVG 20010904//EN"
 "http://www.w3.org/TR/2001/REC-SVG-20010904/DTD/svg10.dtd">
<svg version="1.0" xmlns="http://www.w3.org/2000/svg"
 width="3578.000000pt" height="1552.000000pt" viewBox="0 0 3578.000000 1552.000000"
 preserveAspectRatio="xMidYMid meet">
<metadata>
Created by potrace 1.16, written by Peter Selinger 2001-2019
</metadata>
<g transform="translate(0.000000,1552.000000) scale(0.100000,-0.100000)"
fill="#000000" stroke="none">
<path d="M8940 13660 c-938 -58 -2083 -417 -3140 -985 -133 -72 -547 -312
-642 -373 -32 -20 -106 -68 -165 -105 -269 -169 -1106 -777 -1120 -813 -3 -8
7 -29 21 -47 15 -17 36 -47 49 -64 12 -18 28 -33 35 -33 7 0 49 23 94 51 44
28 139 84 209 124 70 41 241 144 379 231 741 461 1553 830 2275 1035 418 118
882 200 1230 215 603 27 1158 -179 1429 -530 78 -101 96 -131 139 -232 64
-150 79 -232 83 -468 1 -116 -2 -238 -7 -271 -35 -213 -135 -545 -240 -799
-63 -149 -224 -479 -284 -582 -25 -41 -45 -78 -45 -80 0 -11 -215 -348 -319
-497 -64 -93 -123 -179 -131 -191 -16 -24 -160 -213 -260 -344 -36 -46 -66
-79 -68 -73 -2 5 7 54 19 108 30 135 36 329 15 451 -74 426 -376 724 -856 847
-623 159 -1536 -2 -2550 -451 -281 -124 -736 -356 -930 -474 -25 -15 -103 -62
-175 -104 -362 -215 -738 -476 -1099 -764 -79 -63 -138 -112 -331 -274 -199
-168 -581 -536 -800 -774 -344 -373 -702 -858 -920 -1249 -22 -38 -52 -92 -68
-120 -36 -64 -167 -328 -189 -380 -9 -22 -31 -73 -48 -113 -123 -291 -218
-641 -267 -983 -23 -158 -25 -674 -5 -814 68 -451 232 -796 516 -1081 348
-348 865 -575 1424 -624 156 -14 499 -14 642 0 680 65 1286 249 1995 602 247
124 611 328 805 453 81 52 480 319 535 358 78 55 458 339 465 347 3 3 63 53
134 109 71 57 150 122 176 145 25 23 87 75 135 116 333 282 803 733 1225 1175
311 326 759 847 1010 1175 330 431 480 640 715 995 207 314 224 341 365 575
639 1064 1045 2076 1170 2915 29 201 47 589 32 719 -11 104 -62 369 -88 466
-149 544 -500 977 -989 1223 -265 132 -512 203 -845 242 -168 19 -547 27 -740
15z m-1660 -4130 c135 -15 211 -35 318 -87 170 -81 285 -224 327 -407 18 -78
21 -252 5 -348 -52 -324 -246 -720 -484 -988 -186 -210 -500 -533 -656 -675
-41 -38 -100 -91 -130 -119 -459 -426 -1204 -945 -1705 -1191 -468 -230 -942
-342 -1245 -295 -152 24 -270 64 -366 125 -199 127 -328 350 -349 601 -25 303
196 826 519 1224 182 226 469 536 651 705 59 55 113 105 119 110 30 28 220
188 286 242 655 527 1497 950 2145 1077 167 33 396 43 565 26z"/>
<path d="M30295 10983 c-1033 -19 -1476 -69 -2015 -228 -461 -137 -938 -375
-1290 -643 -257 -197 -564 -485 -731 -687 -40 -49 -77 -92 -80 -95 -6 -6 -95
-121 -176 -229 -214 -286 -432 -674 -569 -1012 -161 -400 -244 -724 -301
-1174 -25 -203 -25 -742 0 -905 75 -478 259 -881 561 -1225 391 -447 905 -704
1556 -780 276 -32 776 -42 1446 -28 l322 6 22 86 c12 47 39 149 60 226 115
425 290 1092 290 1103 0 9 -150 12 -719 12 -800 0 -834 2 -1041 70 -369 121
-641 345 -800 660 -122 243 -167 508 -141 835 39 486 196 927 469 1323 413
596 1083 1036 1799 1181 236 48 316 53 853 60 374 4 511 9 527 18 27 16 38 49
102 293 49 187 144 542 251 941 27 103 50 190 50 193 0 6 -115 5 -445 -1z"/>
<path d="M14633 10971 c-420 -6 -433 -7 -453 -27 -14 -13 -34 -72 -61 -175
-62 -236 -103 -389 -149 -559 -72 -268 -170 -643 -170 -651 0 -5 484 -9 1076
-9 915 0 1092 -2 1180 -15 226 -34 344 -108 405 -255 20 -48 23 -73 23 -190 1
-155 -12 -219 -120 -583 -13 -42 -48 -47 -336 -48 -498 0 -1158 -18 -1298 -33
-963 -108 -1758 -534 -2376 -1272 -240 -287 -419 -668 -479 -1014 -82 -477 -1
-967 217 -1310 113 -177 306 -373 478 -485 287 -186 550 -279 936 -332 104
-14 310 -17 1670 -20 l1551 -4 12 43 c6 24 29 108 50 188 22 80 74 273 116
430 42 157 89 332 105 390 16 58 53 197 84 310 224 836 312 1162 341 1270 19
69 46 170 60 225 15 55 71 269 126 475 187 703 287 1085 313 1190 75 311 116
510 141 675 19 131 19 367 0 481 -70 404 -307 749 -705 1023 -60 42 -271 146
-360 178 -106 39 -285 79 -410 92 -116 13 -1375 20 -1967 12z m1312 -3933 c4
-4 -87 -359 -201 -790 -185 -698 -211 -786 -236 -811 l-27 -28 -713 4 c-795 3
-755 0 -908 75 -89 43 -190 139 -237 222 -133 234 -84 546 132 839 99 134 231
249 390 340 166 94 321 140 510 151 151 9 1281 7 1290 -2z"/>
<path d="M21145 10970 c-433 -7 -482 -11 -717 -59 -412 -85 -810 -261 -1103
-487 -361 -278 -624 -666 -784 -1154 -61 -189 -88 -329 -100 -518 -17 -285 28
-521 145 -754 184 -367 521 -672 1125 -1018 81 -47 113 -65 329 -192 256 -149
555 -343 659 -426 112 -90 179 -236 167 -361 -20 -220 -135 -409 -298 -492
-50 -26 -197 -64 -328 -85 -93 -16 -229 -18 -1222 -23 -1114 -6 -1118 -6
-1138 -27 -15 -14 -38 -84 -76 -230 -30 -115 -61 -231 -69 -259 -89 -329 -235
-887 -235 -899 0 -14 116 -16 1143 -16 628 0 1239 5 1357 10 494 22 833 100
1172 271 102 51 251 143 304 188 17 14 51 41 75 60 66 52 249 238 300 305 302
400 479 811 570 1331 30 169 32 460 5 600 -40 207 -135 425 -253 584 -72 97
-279 303 -408 406 -194 156 -450 316 -945 590 -142 79 -326 187 -415 244 -110
70 -344 293 -381 361 -29 55 -25 149 11 230 66 149 166 253 310 321 152 71
111 69 1295 69 583 0 1060 3 1060 6 0 3 52 197 115 432 63 235 149 552 190
705 41 153 75 283 75 288 0 10 -1240 9 -1935 -1z"/>
<path d="M24175 10968 c-2 -7 -25 -92 -50 -188 -81 -316 -164 -633 -195 -750
-16 -63 -57 -221 -91 -350 -33 -129 -71 -275 -84 -325 -13 -49 -87 -333 -165
-630 -77 -297 -201 -772 -274 -1055 -74 -283 -153 -587 -176 -675 -23 -88 -77
-295 -120 -460 -43 -165 -97 -372 -120 -460 -23 -88 -54 -209 -70 -270 -16
-60 -79 -301 -139 -535 -61 -234 -124 -477 -141 -540 -189 -722 -185 -704
-177 -723 6 -16 63 -17 749 -17 771 1 753 0 785 41 12 15 73 238 216 789 31
118 94 361 141 540 46 179 109 422 140 540 31 118 100 386 155 595 98 374 157
601 251 965 26 102 71 275 100 385 29 110 74 283 100 385 27 102 72 275 100
385 29 110 72 274 95 365 24 91 91 350 150 575 110 425 156 603 206 790 85
320 152 583 157 608 l4 27 -771 0 c-608 0 -773 -3 -776 -12z"/>
<path d="M33275 10969 c-428 -8 -556 -23 -841 -99 -323 -86 -616 -220 -861
-393 -113 -81 -140 -104 -279 -242 -266 -264 -441 -557 -573 -956 -83 -252
-117 -461 -108 -677 15 -413 165 -745 474 -1050 151 -149 317 -268 673 -482
462 -277 545 -329 825 -517 372 -249 414 -289 451 -432 12 -50 13 -74 4 -143
-39 -284 -183 -452 -442 -518 -215 -54 -199 -53 -1406 -59 l-1123 -6 -19 -25
c-10 -14 -21 -40 -25 -58 -3 -18 -46 -180 -95 -360 -110 -409 -260 -970 -260
-977 0 -9 2340 -5 2530 5 472 23 818 104 1138 267 415 211 731 537 966 994
150 291 250 609 302 954 20 137 15 417 -10 545 -52 265 -179 519 -365 729
-213 242 -350 338 -1041 731 -572 325 -685 400 -865 572 -125 119 -150 167
-142 265 8 99 67 213 159 306 100 102 205 155 357 182 70 13 248 15 1090 16
752 0 1015 3 1041 12 20 7 41 25 51 42 10 17 47 140 83 275 35 135 111 416
167 625 57 209 105 401 107 426 l4 46 -453 6 c-514 8 -1005 7 -1514 -4z"/>
</g>
</svg>
