<?xml version="1.0" standalone="no"?>
<!DOCTYPE svg PUBLIC "-//W3C//DTD SVG 20010904//EN"
 "http://www.w3.org/TR/2001/REC-SVG-20010904/DTD/svg10.dtd">
<svg version="1.0" xmlns="http://www.w3.org/2000/svg"
 width="512.000000pt" height="512.000000pt" viewBox="0 0 512.000000 512.000000"
 preserveAspectRatio="xMidYMid meet">
<metadata>
Created by potrace 1.16, written by Peter Selinger 2001-2019
</metadata>
<g transform="translate(0.000000,512.000000) scale(0.100000,-0.100000)"
fill="#000000" stroke="none">
<path d="M2869 3739 c-266 -161 -488 -295 -493 -299 -4 -5 308 -535 694 -1179
l703 -1171 674 0 c553 0 674 2 671 13 -4 19 -1752 2927 -1759 2927 -3 0 -223
-131 -490 -291z"/>
<path d="M1680 2694 c-267 -161 -489 -295 -494 -297 -5 -2 166 -295 380 -653
l390 -649 677 -3 c372 -1 677 1 677 4 0 11 -1133 1894 -1139 1893 -3 -1 -224
-133 -491 -295z"/>
<path d="M488 1647 c-268 -160 -487 -296 -488 -301 0 -6 33 -65 73 -133 l72
-123 678 0 679 0 -29 49 c-169 291 -480 800 -488 801 -5 0 -229 -132 -497
-293z"/>
</g>
</svg>
