<?xml version="1.0" standalone="no"?>
<!DOCTYPE svg PUBLIC "-//W3C//DTD SVG 20010904//EN"
 "http://www.w3.org/TR/2001/REC-SVG-20010904/DTD/svg10.dtd">
<svg version="1.0" xmlns="http://www.w3.org/2000/svg"
 width="3840.000000pt" height="2160.000000pt" viewBox="0 0 3840.000000 2160.000000"
 preserveAspectRatio="xMidYMid meet">
<metadata>
Created by potrace 1.16, written by Peter Selinger 2001-2019
</metadata>
<g transform="translate(0.000000,2160.000000) scale(0.100000,-0.100000)"
fill="#000000" stroke="none">
<path d="M20534 18646 c-19 -9 -56 -49 -102 -112 -75 -105 -94 -128 -170 -208
-71 -75 -102 -100 -149 -119 -66 -26 -114 -9 -207 75 -69 63 -122 41 -265
-111 -110 -116 -172 -158 -218 -146 -14 3 -48 27 -77 54 -73 68 -95 81 -141
81 -54 0 -113 -38 -188 -121 -161 -177 -211 -207 -329 -201 -18 2 -44 20 -80
56 -89 90 -131 86 -248 -25 -150 -144 -238 -199 -313 -199 -45 0 -52 4 -117
65 -37 35 -79 67 -93 70 -29 8 -107 -29 -152 -71 -231 -217 -300 -264 -390
-266 -57 -1 -75 14 -114 96 -58 123 -105 142 -210 86 -57 -31 -88 -55 -215
-167 -99 -88 -176 -127 -247 -128 -69 0 -89 15 -128 100 -39 83 -61 105 -102
105 -63 -1 -106 -27 -304 -181 -226 -176 -290 -188 -361 -66 -20 34 -45 69
-56 79 -31 27 -98 23 -161 -8 -55 -28 -165 -119 -232 -192 -130 -143 -216
-150 -291 -23 -19 33 -52 51 -91 51 -58 0 -117 -43 -273 -202 l-156 -158 -51
0 c-62 0 -101 13 -165 56 -27 19 -61 34 -74 34 -53 0 -122 -66 -221 -209 -37
-53 -70 -98 -73 -101 -3 -3 -17 -21 -30 -40 -26 -37 -72 -90 -105 -122 -40
-38 -86 -33 -187 19 -42 22 -51 23 -83 13 -77 -25 -181 -169 -320 -440 -41
-80 -83 -155 -94 -167 -34 -40 -66 -46 -152 -27 -76 16 -77 16 -115 -5 -33
-19 -103 -106 -159 -200 -5 -9 -35 -54 -66 -101 -374 -567 -562 -1213 -563
-1930 0 -239 12 -380 50 -580 95 -501 277 -896 537 -1164 48 -50 87 -93 87
-97 0 -3 -23 -66 -51 -140 -90 -234 -125 -372 -139 -548 -16 -203 9 -365 78
-511 46 -98 172 -279 241 -349 108 -107 191 -135 250 -86 29 25 81 119 81 147
0 28 50 117 75 134 22 14 32 15 64 5 36 -10 149 -79 179 -108 7 -7 34 -22 59
-33 100 -44 139 -4 168 170 20 124 30 158 57 187 40 43 109 28 248 -55 104
-62 130 -69 167 -47 49 29 98 168 122 348 21 154 11 240 -43 345 -51 101 -134
160 -291 208 -81 25 -105 27 -247 28 -87 0 -158 1 -158 3 0 1 16 27 35 58 34
52 46 74 120 211 72 133 128 295 142 413 8 66 -22 203 -59 272 -31 59 -121
158 -196 218 -51 40 -44 51 31 51 38 0 67 -9 129 -42 106 -55 167 -119 223
-233 57 -118 69 -186 63 -338 -5 -111 -10 -135 -52 -261 -26 -76 -45 -139 -44
-141 2 -1 37 -7 79 -13 101 -15 160 -36 236 -84 74 -47 145 -122 180 -193 14
-27 30 -53 36 -57 45 -28 566 -81 982 -99 320 -14 757 -6 897 15 162 25 168
30 454 326 113 118 178 180 244 230 24 19 51 41 58 48 8 7 53 31 100 55 80 39
93 42 167 42 64 0 89 -5 123 -23 23 -12 42 -26 42 -31 0 -4 -12 -13 -27 -20
-16 -7 -71 -41 -123 -76 -217 -144 -355 -334 -410 -564 -19 -77 -22 -110 -17
-190 13 -209 73 -317 269 -484 28 -23 58 -49 67 -57 45 -39 113 -137 149 -212
39 -82 62 -146 102 -284 29 -98 83 -186 130 -213 45 -25 61 -26 100 -6 39 20
53 49 84 173 59 232 107 248 266 86 62 -63 123 -104 154 -104 8 0 28 11 44 25
36 30 52 87 52 187 1 236 90 269 272 98 88 -84 129 -107 165 -94 51 18 65 52
73 181 11 176 38 221 122 210 39 -5 55 -14 177 -103 76 -55 106 -54 157 2 49
53 67 119 62 223 -4 72 -10 96 -37 150 -79 155 -225 234 -591 321 -177 42
-219 57 -256 94 -32 32 -54 104 -36 115 6 3 93 2 194 -2 228 -10 886 -3 1073
12 929 74 1604 238 2125 515 58 31 128 68 157 83 l52 26 238 -46 c131 -26 270
-52 308 -57 514 -73 893 -110 1455 -142 304 -18 1320 -18 1490 0 355 36 514
75 713 174 161 80 248 205 218 316 -18 70 -55 119 -123 163 -56 36 -199 89
-241 89 -30 0 -127 41 -157 67 -17 14 -58 63 -92 110 -34 47 -73 89 -86 94
-34 13 -82 -4 -158 -57 -35 -23 -72 -45 -84 -49 -31 -10 -71 31 -94 97 -10 29
-31 81 -48 116 -27 59 -31 62 -64 62 -25 0 -57 -14 -112 -49 -99 -64 -127 -74
-152 -59 -22 14 -59 81 -85 153 -39 105 -69 123 -150 89 -35 -14 -93 -51 -105
-65 -11 -13 -70 -39 -90 -39 -27 0 -53 45 -86 147 -32 102 -51 123 -107 123
-32 0 -58 -9 -103 -37 -118 -73 -142 -83 -193 -77 -114 14 -267 80 -417 181
-142 96 -154 111 -248 295 -47 92 -86 169 -86 172 0 3 14 6 31 6 37 0 85 -21
159 -70 77 -51 179 -100 208 -100 33 0 74 47 91 106 29 102 52 152 88 187 44
45 88 48 148 12 171 -103 227 -123 262 -93 18 14 41 67 59 137 17 62 44 111
83 147 39 36 83 32 166 -17 167 -98 211 -110 241 -63 10 14 30 64 45 111 59
181 120 219 239 151 118 -67 184 -98 211 -98 37 0 59 35 94 145 29 93 63 148
106 171 41 21 66 14 174 -51 120 -72 137 -79 177 -71 46 8 71 45 103 152 37
121 52 147 137 234 90 93 129 168 136 260 4 55 0 74 -18 111 -59 117 -146 151
-327 129 -105 -13 -427 -79 -933 -190 -19 -4 -111 -24 -205 -44 -93 -21 -204
-46 -245 -56 -41 -10 -93 -21 -115 -25 -22 -3 -78 -15 -125 -26 -198 -46 -571
-127 -602 -131 -23 -3 -32 6 -71 64 -59 91 -103 139 -157 173 -62 39 -170 46
-285 17 -219 -55 -344 -55 -565 -1 -121 30 -150 33 -285 34 -127 0 -164 -4
-240 -24 -128 -33 -330 -139 -441 -230 -17 -14 -42 -34 -55 -45 -13 -10 -41
-34 -61 -54 l-37 -35 -93 19 c-124 25 -331 25 -443 0 -89 -20 -266 -84 -325
-117 l-39 -22 -46 22 c-26 12 -81 36 -123 52 -42 17 -95 39 -117 49 -71 32
-268 108 -350 135 -137 45 -424 124 -524 145 -53 11 -139 29 -191 40 -123 26
-523 76 -716 90 -203 14 -665 15 -849 0 -336 -25 -868 -99 -1220 -169 -379
-75 -579 -121 -985 -223 -151 -38 -318 -80 -370 -93 -378 -94 -678 -40 -773
139 -32 61 -31 174 3 241 28 57 229 265 255 265 3 0 29 17 58 38 29 20 64 43
77 51 14 8 63 37 110 64 89 51 394 202 515 255 120 51 258 108 320 132 33 12
69 26 80 31 90 37 530 175 715 223 52 14 120 33 150 41 61 17 277 74 500 130
80 21 183 48 230 62 47 14 126 36 175 50 50 14 110 31 135 38 115 33 609 200
665 226 11 5 90 36 175 70 243 96 433 182 730 330 398 199 520 270 705 408
341 256 548 511 659 811 41 111 56 188 56 281 0 79 -12 112 -47 128 -29 13
-31 13 -69 -3z m-5517 -1953 c6 -15 -47 -261 -67 -310 -5 -13 -16 -23 -24 -23
-12 0 -223 96 -336 152 -25 13 -45 30 -45 38 0 27 132 82 315 130 125 34 149
35 157 13z m-634 -318 c-5 -61 -66 -300 -80 -312 -12 -9 -44 3 -161 61 -81 40
-163 79 -182 86 -41 16 -49 26 -43 51 10 38 346 151 433 146 32 -2 35 -4 33
-32z m-559 -354 c5 -8 -25 -163 -44 -226 -5 -16 -14 -49 -20 -72 -8 -31 -16
-43 -29 -43 -11 0 -90 34 -177 76 -88 42 -169 80 -182 85 -36 14 -23 41 35 71
137 70 399 139 417 109z m418 -413 c6 -16 -22 -151 -63 -310 -13 -51 -34 -50
-145 10 -49 27 -126 66 -172 87 -46 21 -88 47 -93 57 -9 16 -1 23 63 52 79 36
210 78 310 100 82 18 95 19 100 4z m-852 -106 c0 -9 -11 -67 -25 -127 -14 -61
-28 -124 -32 -142 -3 -18 -14 -40 -24 -49 -17 -15 -23 -14 -101 24 -46 22
-127 61 -181 86 -105 49 -123 68 -88 95 49 37 343 129 419 130 24 1 32 -3 32
-17z m550 -430 c0 -10 -6 -42 -14 -72 -7 -30 -21 -91 -30 -135 -22 -101 -32
-125 -51 -125 -9 0 -46 15 -83 34 -37 19 -114 56 -172 81 -58 26 -112 54 -120
62 -13 13 -13 16 7 32 39 32 182 83 368 131 57 15 95 12 95 -8z m-713 -147 c2
-11 -14 -87 -35 -170 -43 -174 -43 -174 -138 -126 -33 16 -112 54 -176 85 -95
44 -118 59 -118 76 0 12 9 24 23 29 12 5 43 18 67 30 83 38 312 102 355 98 12
-1 21 -10 22 -22z m10196 -41 c45 -23 66 -44 88 -86 30 -59 27 -64 -53 -81
-40 -8 -110 -23 -155 -32 -45 -10 -89 -15 -97 -12 -32 12 -11 105 37 163 51
61 118 79 180 48z m-804 -113 c52 -20 112 -60 149 -100 30 -32 66 -91 60 -97
-13 -13 -392 -96 -445 -97 -52 -2 -66 2 -84 20 -32 32 -38 117 -11 169 24 45
76 99 112 113 43 17 165 13 219 -8z m-4709 -112 c0 -17 -16 -98 -36 -180 -30
-125 -39 -149 -54 -149 -10 0 -89 34 -175 75 -86 41 -160 75 -165 75 -15 0
-40 31 -40 50 0 19 18 30 140 82 60 26 256 77 298 78 29 0 32 -3 32 -31z m698
8 c7 -9 -1 -57 -28 -170 -43 -171 -45 -177 -64 -177 -19 0 -386 178 -386 187
1 34 123 93 290 140 113 32 173 39 188 20z m-1402 -52 c5 -12 -36 -217 -63
-317 -2 -10 -14 -18 -25 -18 -11 0 -91 34 -177 75 -199 95 -204 98 -208 112
-10 28 151 95 342 144 89 22 124 23 131 4z m2072 -58 c13 -16 -51 -303 -73
-326 -11 -11 -23 -8 -76 17 -35 17 -122 58 -192 91 -80 38 -127 65 -125 73 11
31 238 118 368 142 41 7 78 14 81 15 4 0 11 -5 17 -12z m-5276 -67 c-6 -73
-69 -305 -83 -308 -20 -4 -389 175 -389 189 0 26 276 132 389 148 82 13 86 11
83 -29z m2492 -20 c-1 -19 -16 -97 -34 -172 -38 -158 -40 -159 -128 -113 -26
13 -105 51 -177 84 -71 33 -131 67 -133 74 -4 19 26 37 127 77 92 36 294 90
326 87 16 -2 20 -9 19 -37z m-3190 -108 c5 -8 -46 -241 -65 -299 -6 -18 -14
-35 -19 -38 -4 -3 -41 10 -81 29 -41 18 -98 44 -128 57 -212 94 -218 105 -91
161 169 73 366 119 384 90z m2480 -18 c22 -9 21 -19 -20 -191 -25 -102 -42
-154 -52 -158 -9 -3 -98 33 -201 83 -147 69 -186 92 -186 107 0 27 143 88 310
130 72 19 131 34 132 34 1 1 8 -2 17 -5z m4146 -30 c0 -20 -59 -272 -71 -303
-8 -18 -14 -22 -34 -17 -43 11 -375 175 -375 186 0 32 338 147 438 149 32 1
42 -3 42 -15z m-4836 -189 c-1 -17 -41 -203 -62 -290 -4 -16 -15 -31 -24 -33
-9 -2 -74 25 -145 59 -70 34 -152 72 -181 85 -57 26 -73 48 -51 68 22 20 194
86 294 112 110 29 171 28 169 -1z m2675 -34 c11 -7 9 -27 -12 -122 -50 -217
-49 -214 -77 -212 -33 2 -380 170 -380 184 0 25 218 109 360 139 103 23 92 21
109 11z m-3367 -6 c3 -3 0 -31 -7 -63 -7 -31 -23 -103 -35 -160 -27 -122 -37
-129 -122 -89 -29 14 -110 52 -180 85 -165 78 -166 84 -20 142 163 65 342 106
364 85z m4071 -50 c-3 -47 -51 -262 -65 -287 -12 -25 -37 -22 -104 11 -92 45
-255 121 -262 121 -9 0 -42 33 -42 42 0 22 213 103 364 138 107 24 112 23 109
-25z m-1404 -9 c13 -16 8 -58 -14 -136 -8 -25 -21 -80 -31 -123 -10 -44 -23
-81 -31 -84 -7 -3 -79 28 -160 67 -82 40 -167 81 -190 92 -44 19 -53 37 -30
56 31 24 192 87 292 113 127 32 148 34 164 15z m2084 -88 c2 -7 -6 -53 -18
-103 -12 -49 -28 -120 -35 -157 -14 -75 -28 -95 -57 -79 -10 6 -98 49 -196 96
-111 53 -177 90 -175 97 8 28 211 110 363 146 59 14 112 14 118 0z m-2803 -68
c12 -8 10 -28 -18 -142 -18 -73 -35 -148 -39 -166 -3 -19 -12 -36 -19 -39 -8
-3 -64 20 -126 50 -62 30 -148 71 -191 91 -59 27 -78 41 -75 54 6 33 261 130
398 152 25 4 47 8 50 9 3 0 12 -3 20 -9z m-2696 -58 c4 -7 1 -24 -44 -227 -29
-132 -33 -135 -106 -97 -62 33 -263 128 -301 143 -44 17 -28 44 46 77 38 17
91 38 117 47 27 8 65 20 84 27 81 27 195 44 204 30z m1984 -131 c11 -7 7 -35
-18 -147 -40 -170 -48 -194 -69 -194 -31 0 -381 179 -381 194 0 27 137 84 315
131 97 26 132 30 153 16z m-690 -193 c2 -14 -11 -84 -28 -155 -41 -169 -39
-163 -58 -163 -9 0 -99 39 -199 86 -188 90 -206 105 -162 132 68 43 364 134
419 129 19 -2 26 -8 28 -29z m-682 -42 c-13 -74 -64 -294 -71 -305 -4 -7 -17
-10 -30 -7 -44 11 -364 169 -369 183 -14 36 196 115 439 165 30 7 37 -1 31
-36z m3380 31 c2 -7 -13 -84 -34 -172 -33 -137 -41 -160 -58 -163 -17 -2 -146
56 -344 155 -59 30 -51 48 35 89 159 74 387 126 401 91z m698 -33 c4 -9 0 -42
-9 -73 -8 -31 -24 -96 -35 -145 -11 -49 -25 -96 -32 -103 -15 -18 -25 -14
-225 83 -112 54 -173 88 -173 98 0 9 13 22 30 31 88 45 341 123 406 124 21 1
34 -5 38 -15z m-1399 -34 c3 -6 -8 -67 -25 -138 -49 -201 -49 -202 -69 -202
-33 0 -376 165 -379 182 -6 32 183 112 348 148 101 22 117 23 125 10z m-721
-165 c8 -22 -69 -318 -86 -328 -9 -6 -64 15 -163 62 -218 103 -219 104 -223
124 -6 30 142 90 338 137 95 23 126 24 134 5z m-711 -202 c4 -8 -37 -202 -62
-291 -19 -69 -4 -73 -283 61 -95 45 -128 65 -128 79 0 51 449 193 473 151z"/>
<path d="M19525 8690 c-447 -50 -812 -157 -1171 -344 -374 -195 -722 -493
-945 -809 -32 -45 -62 -86 -66 -92 -8 -9 -41 -63 -110 -180 -44 -74 -141 -287
-179 -393 -71 -195 -124 -429 -154 -672 -20 -163 -22 -216 -17 -445 6 -301 25
-447 88 -703 90 -360 251 -698 473 -992 107 -142 319 -360 441 -453 5 -4 21
-17 35 -28 42 -35 212 -153 265 -184 28 -16 64 -37 80 -47 243 -144 593 -276
890 -336 1026 -209 2074 55 2768 698 51 47 130 127 212 214 11 12 41 48 67 81
27 33 52 65 56 70 33 41 123 177 138 208 10 20 21 37 24 37 14 0 157 301 203
425 264 716 248 1561 -43 2260 -80 190 -226 438 -362 612 -94 121 -303 335
-393 403 -33 25 -71 55 -85 68 -31 27 -157 113 -265 179 -323 197 -710 333
-1135 399 -142 22 -205 26 -450 29 -157 2 -321 0 -365 -5z m473 -980 c527 -41
994 -277 1320 -666 50 -59 175 -249 220 -335 87 -164 165 -416 194 -624 18
-135 16 -449 -5 -571 -24 -144 -63 -294 -101 -394 -41 -106 -116 -256 -156
-315 -16 -24 -30 -47 -30 -50 0 -18 -168 -219 -242 -290 -108 -105 -163 -149
-274 -223 -233 -154 -494 -251 -806 -298 -132 -20 -490 -14 -618 10 -352 66
-634 196 -895 411 -115 96 -157 138 -249 253 -175 218 -288 447 -355 712 -93
373 -80 747 38 1115 71 220 206 456 365 637 118 134 229 230 383 331 202 132
442 226 698 273 167 30 332 38 513 24z"/>
<path d="M25275 8675 c-233 -32 -361 -62 -545 -127 -94 -34 -277 -122 -355
-171 -319 -201 -552 -499 -660 -847 -50 -163 -69 -296 -67 -485 2 -353 90
-609 292 -850 116 -139 237 -237 443 -359 64 -38 244 -125 322 -156 44 -17 94
-37 110 -45 35 -16 434 -149 585 -195 58 -18 140 -43 182 -56 43 -14 115 -36
160 -50 258 -81 526 -200 645 -288 185 -136 265 -267 279 -458 11 -145 -43
-306 -139 -418 -73 -85 -211 -173 -342 -219 -154 -53 -271 -72 -485 -78 -269
-7 -482 18 -765 88 -337 85 -648 222 -932 411 l-103 68 -16 -37 c-8 -21 -25
-65 -36 -98 -11 -33 -24 -64 -28 -70 -4 -5 -41 -98 -83 -205 -42 -107 -97
-247 -122 -310 l-46 -115 38 -33 c123 -108 418 -280 638 -371 605 -252 1389
-329 2014 -196 703 150 1225 549 1419 1085 89 245 110 498 67 795 -63 429
-290 765 -690 1020 -83 53 -288 155 -420 208 -155 63 -384 138 -755 248 -562
165 -763 250 -927 391 -111 95 -160 172 -193 303 -18 71 -21 103 -15 158 28
286 222 459 600 534 40 8 167 16 300 20 198 4 252 2 390 -16 294 -38 515 -104
790 -235 114 -54 302 -168 391 -237 28 -21 56 -39 62 -39 6 0 102 181 213 402
l201 403 -44 37 c-87 77 -271 191 -438 274 -360 178 -804 300 -1213 334 -219
17 -528 11 -722 -15z"/>
<path d="M13620 8671 c-516 -66 -924 -211 -1340 -479 -73 -47 -184 -126 -200
-142 -3 -3 -34 -29 -70 -59 -140 -117 -351 -345 -441 -476 -19 -27 -37 -52
-40 -55 -16 -15 -125 -203 -177 -306 -145 -289 -236 -596 -283 -954 -18 -131
-18 -634 -1 -770 64 -502 222 -929 480 -1300 156 -223 367 -440 586 -602 50
-37 97 -73 104 -78 30 -26 187 -118 307 -180 660 -342 1500 -431 2258 -239 79
20 299 88 347 107 14 6 50 20 80 32 220 88 501 237 675 359 28 19 63 44 80 55
54 38 219 170 262 209 l41 38 -87 127 c-77 111 -187 268 -209 297 -4 6 -26 37
-48 70 -98 143 -160 232 -176 254 -16 23 -18 23 -41 8 -13 -9 -30 -22 -38 -29
-23 -22 -196 -140 -298 -202 -132 -81 -413 -216 -564 -270 -143 -52 -341 -105
-492 -133 -127 -23 -515 -26 -640 -4 -554 94 -993 374 -1287 820 -213 323
-320 717 -304 1126 3 88 12 197 20 242 37 206 111 430 192 582 48 89 172 274
226 336 370 427 892 661 1473 658 103 0 229 -7 295 -16 282 -38 562 -143 807
-303 88 -57 291 -219 388 -308 33 -31 63 -55 66 -53 4 1 159 152 345 335 l338
333 -49 52 c-416 442 -792 674 -1350 835 -87 25 -193 47 -355 73 -185 30 -676
35 -880 10z"/>
<path d="M130 5820 l0 -2770 1934 0 c1552 0 1936 2 1944 13 7 8 10 152 9 440
l-2 427 -1450 3 -1450 2 -3 2328 -2 2327 -490 0 -490 0 0 -2770z"/>
<path d="M7076 8479 c-26 -61 -59 -136 -73 -167 -14 -32 -31 -70 -38 -87 -28
-64 -99 -223 -131 -293 -19 -41 -34 -76 -34 -79 0 -6 -40 -96 -106 -240 -13
-28 -24 -54 -24 -57 0 -3 -18 -44 -40 -91 -22 -47 -40 -87 -40 -89 0 -3 -13
-33 -29 -68 -16 -35 -61 -137 -101 -228 -39 -91 -89 -203 -110 -250 -20 -47
-67 -152 -103 -235 -36 -82 -130 -294 -208 -470 -181 -408 -215 -486 -246
-560 -14 -33 -35 -82 -48 -110 -13 -27 -39 -86 -58 -130 -19 -44 -52 -118 -72
-165 -20 -47 -53 -121 -72 -165 -19 -44 -50 -114 -68 -155 -19 -41 -68 -154
-110 -250 -43 -96 -88 -199 -101 -228 -13 -29 -24 -55 -24 -57 0 -2 -12 -30
-26 -62 -52 -112 -314 -704 -314 -708 0 -2 -13 -32 -29 -67 -16 -35 -44 -99
-64 -143 -19 -44 -53 -120 -75 -170 -28 -63 -36 -92 -28 -97 13 -9 951 -11
982 -2 15 4 30 29 54 87 18 45 50 120 71 167 20 47 60 141 89 210 29 69 65
154 80 190 15 36 76 180 135 320 60 140 113 261 118 268 7 9 310 12 1454 12
l1444 0 39 -83 c21 -45 84 -183 140 -307 137 -303 139 -308 165 -365 13 -27
47 -102 75 -165 28 -63 62 -137 75 -165 13 -27 34 -75 48 -106 23 -52 27 -56
66 -63 77 -12 1101 -7 1101 6 0 6 -18 48 -39 92 -21 45 -79 167 -129 271 -90
192 -131 277 -261 548 -39 82 -71 150 -71 152 0 1 -45 95 -100 209 -55 114
-100 208 -100 211 0 2 -49 106 -110 230 -60 124 -110 228 -110 229 0 2 -33 73
-74 157 -100 210 -163 341 -266 559 -48 102 -122 256 -164 344 -42 87 -76 160
-76 162 0 2 -49 105 -110 229 -60 124 -110 227 -110 229 0 2 -34 75 -76 162
-42 88 -93 195 -114 239 -21 44 -64 134 -95 200 -32 66 -79 165 -105 220 -26
55 -71 150 -100 210 -29 61 -65 138 -81 172 -16 34 -62 131 -102 215 -41 84
-100 207 -131 273 -31 66 -67 140 -81 165 l-24 45 -544 3 -544 2 -47 -111z
m609 -966 c21 -49 56 -126 77 -173 22 -47 44 -94 48 -105 9 -19 48 -106 95
-210 13 -27 53 -117 90 -200 37 -82 83 -183 101 -223 19 -40 34 -75 34 -77 0
-3 25 -57 55 -121 30 -64 55 -118 55 -120 0 -4 23 -55 85 -189 13 -27 80 -178
150 -335 70 -157 138 -307 150 -335 13 -27 39 -86 59 -130 20 -44 41 -88 46
-97 6 -10 10 -22 10 -28 0 -7 -354 -10 -1070 -10 -588 0 -1070 3 -1070 8 0 4
23 61 51 127 28 66 62 147 76 180 14 33 37 89 53 125 15 36 51 121 80 190 55
133 71 170 94 223 37 82 92 212 136 317 26 63 66 158 88 210 21 52 67 160 101
240 35 80 87 204 117 275 30 72 68 159 84 195 16 36 39 92 51 125 12 33 25 65
30 70 6 9 25 54 60 143 5 13 13 21 18 18 5 -3 25 -45 46 -93z"/>
<path d="M28375 8578 c-3 -7 -4 -204 -3 -438 l3 -425 928 -3 927 -2 0 -2330 0
-2330 488 2 487 3 3 2328 2 2327 960 0 960 0 0 440 0 440 -2375 0 c-1891 0
-2377 -3 -2380 -12z"/>
<path d="M33987 8583 c-4 -3 -7 -1245 -7 -2759 0 -2299 3 -2754 14 -2763 10
-8 579 -11 2125 -11 l2111 0 -2 441 -3 440 -1592 -1 c-876 0 -1611 3 -1633 6
l-40 7 0 718 0 719 1395 0 1394 0 1 440 0 440 -1395 0 -1395 0 0 720 0 720
1589 0 1589 0 6 23 c3 12 5 211 3 442 l-2 420 -2076 3 c-1142 1 -2079 -1
-2082 -5z"/>
</g>
</svg>
