<?xml version="1.0" encoding="utf-8"?>
<!-- Generator: Adobe Illustrator 26.0.1, SVG Export Plug-In . SVG Version: 6.00 Build 0)  -->
<svg version="1.1" id="Слой_1" xmlns="http://www.w3.org/2000/svg" xmlns:xlink="http://www.w3.org/1999/xlink" x="0px" y="0px"
	 viewBox="0 0 378 234" style="enable-background:new 0 0 378 234;" xml:space="preserve">
<style type="text/css">
	.st0{fill:url(#SVGID_1_);stroke:#000000;stroke-width:0.5;stroke-miterlimit:10;}
	.st1{fill:url(#SVGID_00000055696898472331988250000007515412015708529836_);stroke:#000000;stroke-miterlimit:10;}
	.st2{fill:none;stroke:#000000;stroke-miterlimit:10;}
	
		.st3{fill:url(#SVGID_00000142889464225385351100000007196237531183159706_);stroke:#000000;stroke-width:0.5;stroke-miterlimit:10;}
	.st4{fill:url(#SVGID_00000054253464931460174170000004790840427573879977_);stroke:#000000;stroke-miterlimit:10;}
</style>
<linearGradient id="SVGID_1_" gradientUnits="userSpaceOnUse" x1="7.9621" y1="8.9577" x2="157.236" y2="229.773">
	<stop  offset="4.368787e-07" style="stop-color:#F9B7B9"/>
	<stop  offset="0.1422" style="stop-color:#EF9EC3;stop-opacity:0.8792"/>
	<stop  offset="0.4019" style="stop-color:#E077D4;stop-opacity:0.6585"/>
	<stop  offset="0.6402" style="stop-color:#D55AE0;stop-opacity:0.456"/>
	<stop  offset="0.8473" style="stop-color:#CE49E7;stop-opacity:0.28"/>
	<stop  offset="1" style="stop-color:#CC43EA;stop-opacity:0.1503"/>
</linearGradient>
<path class="st0" d="M9,9v216h45v-27c0-14.91,12.09-27,27-27s27,12.09,27,27v27h45V9H9z M117,90c0,19.88-16.12,36-36,36h0
	c-19.88,0-36-16.12-36-36v-9c0-19.88,16.12-36,36-36h0c19.88,0,36,16.12,36,36V90z"/>
<linearGradient id="SVGID_00000120553502277447923990000012525312679795601587_" gradientUnits="userSpaceOnUse" x1="158.6624" y1="117" x2="276.7516" y2="117">
	<stop  offset="4.368787e-07" style="stop-color:#F9B7B9"/>
	<stop  offset="0.1422" style="stop-color:#EF9EC3;stop-opacity:0.8792"/>
	<stop  offset="0.4019" style="stop-color:#E077D4;stop-opacity:0.6585"/>
	<stop  offset="0.6402" style="stop-color:#D55AE0;stop-opacity:0.456"/>
	<stop  offset="0.8473" style="stop-color:#CE49E7;stop-opacity:0.28"/>
	<stop  offset="1" style="stop-color:#CC43EA;stop-opacity:0.1503"/>
</linearGradient>
<line style="fill:url(#SVGID_00000120553502277447923990000012525312679795601587_);stroke:#000000;stroke-miterlimit:10;" x1="153" y1="9" x2="297" y2="225"/>
<line class="st2" x1="297" y1="9" x2="297" y2="225"/>
<linearGradient id="SVGID_00000065790743162453069590000017975361862205573001_" gradientUnits="userSpaceOnUse" x1="295.9365" y1="6.5087" x2="368.8537" y2="223.8845">
	<stop  offset="0" style="stop-color:#E5A387"/>
	<stop  offset="1" style="stop-color:#7638B2;stop-opacity:0.4274"/>
</linearGradient>
<rect x="297" y="9" style="fill:url(#SVGID_00000065790743162453069590000017975361862205573001_);stroke:#000000;stroke-width:0.5;stroke-miterlimit:10;" width="72" height="216"/>
<linearGradient id="SVGID_00000178926547022506857880000016747950442854321335_" gradientUnits="userSpaceOnUse" x1="204.0637" y1="153" x2="204.5637" y2="153">
	<stop  offset="0" style="stop-color:#CC43EA;stop-opacity:0.1503"/>
	<stop  offset="4.368787e-07" style="stop-color:#F9B7B9"/>
</linearGradient>
<line style="fill:url(#SVGID_00000178926547022506857880000016747950442854321335_);stroke:#000000;stroke-miterlimit:10;" x1="153" y1="81" x2="297" y2="225"/>
<line class="st2" x1="261" y1="171" x2="297" y2="9"/>
<line class="st2" x1="198" y1="126" x2="153" y2="225"/>
</svg>
