<?xml version="1.0" standalone="no"?>
<!DOCTYPE svg PUBLIC "-//W3C//DTD SVG 20010904//EN"
 "http://www.w3.org/TR/2001/REC-SVG-20010904/DTD/svg10.dtd">
<svg version="1.0" xmlns="http://www.w3.org/2000/svg"
 width="400.000000pt" height="66.000000pt" viewBox="0 0 400.000000 66.000000"
 preserveAspectRatio="xMidYMid meet">
<metadata>
Created by potrace 1.16, written by Peter Selinger 2001-2019
</metadata>
<g transform="translate(0.000000,66.000000) scale(0.100000,-0.100000)"
fill="#000000" stroke="none">
<path d="M127 499 c-87 -21 -127 -74 -127 -170 0 -52 5 -71 24 -100 69 -102
261 -95 318 11 11 22 18 55 18 90 0 35 -7 68 -18 90 -34 62 -133 99 -215 79z
m103 -34 c42 -22 60 -63 60 -137 0 -75 -22 -118 -70 -138 -94 -39 -178 63
-151 183 22 92 87 130 161 92z"/>
<path d="M1507 500 c-96 -18 -153 -109 -133 -214 8 -42 46 -91 89 -113 44 -23
147 -21 189 4 62 36 97 115 84 187 -19 100 -116 158 -229 136z m108 -42 c73
-57 73 -199 0 -256 -77 -60 -175 12 -175 128 0 83 52 150 115 150 18 0 45 -10
60 -22z"/>
<path d="M769 487 c-63 -48 -49 -126 33 -179 63 -40 83 -69 68 -97 -25 -48
-92 -34 -116 25 -20 47 -34 43 -34 -9 0 -37 4 -46 25 -55 14 -7 48 -12 76 -12
68 0 99 30 99 95 0 51 -12 67 -93 122 -50 34 -59 60 -31 87 8 9 24 16 35 16
23 0 59 -34 59 -55 0 -8 5 -15 10 -15 17 0 12 77 -6 84 -27 10 -108 6 -125 -7z"/>
<path d="M370 481 c0 -5 9 -12 19 -16 23 -7 61 -55 96 -121 33 -63 35 -135 3
-157 -22 -15 -20 -16 45 -16 38 -1 67 3 67 9 0 6 -7 10 -15 10 -12 0 -15 13
-15 59 0 53 4 65 49 134 27 41 59 78 70 82 39 12 21 25 -34 25 -30 0 -55 -4
-55 -10 0 -5 5 -10 10 -10 18 0 11 -28 -21 -79 l-32 -50 -37 62 c-21 34 -34
64 -29 65 5 2 9 8 9 13 0 5 -29 9 -65 9 -36 0 -65 -4 -65 -9z"/>
<path d="M980 480 c0 -5 6 -10 14 -10 18 0 26 -44 26 -140 0 -96 -8 -140 -26
-140 -8 0 -14 -4 -14 -10 0 -6 28 -10 65 -10 37 0 65 4 65 10 0 6 -6 10 -14
10 -19 0 -26 22 -26 81 l0 49 80 0 80 0 0 -60 c0 -45 -4 -62 -15 -66 -33 -13
-12 -24 45 -24 57 0 78 11 45 24 -12 4 -15 29 -15 136 0 107 3 132 15 136 33
13 12 24 -45 24 -57 0 -78 -11 -45 -24 11 -4 15 -21 15 -61 l0 -55 -80 0 -80
0 0 44 c0 54 8 76 26 76 8 0 14 5 14 10 0 6 -28 10 -65 10 -37 0 -65 -4 -65
-10z"/>
</g>
</svg>
