<?xml version="1.0" standalone="no"?>
<!DOCTYPE svg PUBLIC "-//W3C//DTD SVG 20010904//EN"
 "http://www.w3.org/TR/2001/REC-SVG-20010904/DTD/svg10.dtd">
<svg version="1.0" xmlns="http://www.w3.org/2000/svg"
 width="3840.000000pt" height="2160.000000pt" viewBox="0 0 3840.000000 2160.000000"
 preserveAspectRatio="xMidYMid meet">
<metadata>
Created by potrace 1.16, written by Peter Selinger 2001-2019
</metadata>
<g transform="translate(0.000000,2160.000000) scale(0.100000,-0.100000)"
fill="#000000" stroke="none">
<path d="M3352 18618 l3 -2573 7885 0 7885 -1 3 -5252 2 -5252 -7890 2 -7890
3 2 -2570 3 -2570 15850 0 15850 0 3 10393 2 10392 -15855 0 -15855 0 2 -2572z
m9414 977 c635 -109 1043 -694 917 -1315 -129 -635 -785 -1019 -1444 -845
-114 31 -290 116 -381 185 -95 72 -225 214 -280 306 -166 276 -206 632 -104
930 130 382 462 665 866 739 103 18 317 18 426 0z m-5346 -80 l0 -75 -405 0
-405 0 0 -1010 0 -1010 -85 0 -85 0 0 1010 0 1010 -405 0 -405 0 0 75 0 75
895 0 895 0 0 -75z m10936 43 c17 -18 203 -243 414 -500 210 -258 386 -468
390 -468 4 0 169 197 365 438 197 240 383 465 413 500 l54 62 79 0 79 0 0
-1085 0 -1085 -85 0 -85 0 -2 957 -3 958 -405 -502 c-223 -276 -407 -502 -410
-502 -3 0 -63 73 -135 161 -128 159 -262 326 -540 668 l-140 173 -3 -956 -2
-957 -85 0 -85 0 0 1085 0 1085 78 0 c75 0 79 -1 108 -32z m6925 -473 c313
-382 416 -502 424 -492 6 7 192 235 414 506 l404 492 81 -3 81 -3 3 -1082 2
-1083 -85 0 -85 0 -2 961 -3 961 -409 -506 c-225 -278 -410 -506 -412 -506 -2
0 -87 105 -191 233 -103 127 -228 282 -277 342 -49 61 -148 183 -220 273
l-131 163 -3 -960 -2 -961 -85 0 -85 0 0 1078 c0 593 3 1082 7 1085 3 4 41 7
83 7 l77 0 414 -505z m5936 473 c17 -18 182 -212 366 -430 l336 -398 361 430
362 430 99 0 c54 0 99 -2 99 -4 0 -3 -189 -230 -420 -506 l-420 -501 0 -579 0
-580 -85 0 -85 0 0 583 0 582 -153 181 c-418 497 -669 798 -674 810 -4 11 14
14 89 14 93 0 94 0 125 -32z m-7002 -15498 c156 -17 269 -48 458 -122 l127
-51 0 -97 0 -97 -107 53 c-341 166 -681 207 -968 117 -147 -46 -247 -106 -359
-212 -201 -193 -299 -452 -283 -750 14 -255 100 -455 266 -622 187 -187 414
-270 736 -271 203 0 335 24 508 93 l77 31 0 294 0 294 -230 0 -230 0 0 70 0
70 315 0 315 0 -2 -417 -3 -417 -77 -33 c-220 -92 -395 -131 -621 -140 -177
-7 -293 5 -427 44 -417 120 -704 427 -790 844 -31 147 -24 379 14 518 95 342
343 610 676 732 188 68 396 92 605 69z m-18394 -32 c0 -7 1 -224 1 -483 0
-258 2 -478 5 -487 4 -17 47 -18 719 -18 l714 0 0 500 0 500 90 0 90 0 0
-1080 c0 -1073 0 -1080 -20 -1081 -11 -1 -50 -2 -87 -2 l-68 -1 -3 512 -2 512
-719 0 -718 0 1 -496 c1 -272 -2 -503 -5 -512 -5 -14 -19 -17 -75 -15 -38 0
-75 2 -81 2 -10 1 -13 224 -13 1081 l0 1080 85 0 c61 0 85 -4 86 -12z m4447
-1070 l-3 -1082 -67 1 c-38 0 -75 1 -83 2 -13 1 -15 128 -15 1081 l0 1080 85
0 85 0 -2 -1082z m2842 72 l0 -1010 533 -2 532 -3 0 -70 0 -69 -618 -1 -617 0
0 1083 0 1082 85 0 85 0 0 -1010z m4600 940 l0 -70 -475 0 -475 0 0 -410 0
-410 430 0 430 0 0 -70 0 -70 -430 0 -430 0 -2 -532 -3 -532 -67 1 c-38 0 -75
1 -83 2 -13 1 -15 128 -15 1081 l0 1080 560 0 560 0 0 -70z m2610 -1010 c0
-857 -3 -1080 -12 -1081 -41 -4 -135 -4 -145 -1 -10 3 -13 229 -13 1083 l0
1079 85 0 85 0 0 -1080z m8301 1073 c0 -5 1 -36 2 -71 l2 -62 -507 0 -508 0 0
-430 0 -430 493 -2 492 -3 3 -72 3 -73 -496 0 -495 0 0 -435 0 -435 520 0 520
0 0 -72 0 -73 -592 2 c-326 0 -599 1 -605 2 -10 1 -13 224 -13 1081 l0 1080
590 0 c325 0 590 -3 591 -7z m3264 -3 c187 -27 306 -80 406 -179 126 -127 174
-304 134 -494 -34 -161 -140 -283 -324 -371 l-71 -34 39 -25 c46 -30 108 -102
188 -217 67 -97 543 -825 543 -831 0 -3 -147 -3 -186 0 -7 1 -90 124 -185 274
-393 620 -465 705 -628 743 -37 9 -126 14 -258 14 l-203 0 0 -515 c0 -483 -1
-515 -17 -516 -52 -3 -139 -4 -148 -2 -7 2 -9 370 -8 1081 1 592 2 1078 2
1080 3 7 657 0 716 -8z"/>
<path d="M12490 19453 c-452 -39 -800 -349 -875 -782 -35 -199 -4 -423 83
-596 209 -418 705 -621 1167 -478 308 96 542 340 627 653 20 74 23 108 22 260
0 161 -2 182 -27 263 -125 404 -458 661 -882 680 -44 2 -96 2 -115 0z"/>
<path d="M31340 3474 l0 -427 243 5 c180 4 261 10 317 23 241 57 353 187 352
409 0 173 -85 294 -252 362 -94 38 -228 54 -457 54 l-203 0 0 -426z"/>
</g>
</svg>
