<?xml version="1.0" standalone="no"?>
<!DOCTYPE svg PUBLIC "-//W3C//DTD SVG 20010904//EN"
 "http://www.w3.org/TR/2001/REC-SVG-20010904/DTD/svg10.dtd">
<svg version="1.0" xmlns="http://www.w3.org/2000/svg"
 width="2560.000000pt" height="832.000000pt" viewBox="0 0 2560.000000 832.000000"
 preserveAspectRatio="xMidYMid meet">
<metadata>
Created by potrace 1.16, written by Peter Selinger 2001-2019
</metadata>
<g transform="translate(0.000000,832.000000) scale(0.100000,-0.100000)"
fill="#000000" stroke="none">
<path d="M16370 8304 c-25 -2 -99 -9 -165 -14 -536 -46 -1076 -192 -1505 -407
-851 -427 -1356 -1104 -1455 -1949 -19 -163 -19 -438 0 -571 90 -637 480
-1122 1285 -1600 75 -44 286 -163 470 -263 498 -271 657 -369 817 -504 138
-116 232 -245 267 -365 20 -69 21 -200 1 -275 -35 -136 -152 -293 -291 -392
-189 -135 -456 -223 -769 -255 -147 -14 -485 -7 -670 15 -516 63 -1019 210
-1453 427 -143 72 -153 75 -157 55 -3 -12 -88 -408 -189 -881 -132 -617 -181
-862 -173 -867 24 -15 256 -98 402 -143 413 -129 860 -219 1350 -272 204 -22
923 -25 1110 -5 628 67 1104 196 1546 418 892 446 1399 1163 1478 2089 66 758
-197 1355 -813 1849 -218 174 -478 340 -861 546 -759 409 -856 469 -1020 634
-192 194 -234 389 -127 590 40 76 182 214 277 270 373 217 946 259 1630 121
286 -58 603 -157 839 -261 54 -24 100 -43 101 -42 8 10 367 1699 363 1704 -22
21 -379 134 -593 188 -237 59 -558 113 -836 141 -145 15 -751 28 -859 19z"/>
<path d="M36 8093 c-31 -176 -31 -171 -5 -177 13 -3 87 -20 164 -36 464 -102
841 -216 1322 -401 553 -212 749 -344 882 -590 76 -142 -28 250 1377 -5166
l408 -1573 1095 0 1096 0 86 208 c63 150 2563 6128 3215 7686 30 71 54 130 54
132 0 2 -492 4 -1092 4 l-1093 0 -1069 -2704 c-588 -1487 -1072 -2709 -1075
-2715 -4 -5 -208 1051 -455 2347 -357 1877 -455 2376 -482 2451 -115 324 -382
545 -733 606 -71 13 -346 15 -1881 15 l-1798 0 -16 -87z"/>
<path d="M9746 4183 c-468 -2199 -852 -4006 -854 -4016 -4 -16 49 -17 1039
-15 l1043 3 843 3975 c463 2186 845 3992 848 4013 l7 37 -1039 0 -1038 0 -849
-3997z"/>
<path d="M21967 8170 c-301 -51 -528 -237 -697 -572 -23 -46 -731 -1739 -1574
-3763 l-1533 -3680 1090 -3 c600 -1 1092 -1 1094 1 2 2 97 273 211 603 l208
599 1322 3 c727 1 1322 0 1322 -2 0 -2 56 -271 125 -597 69 -326 125 -597 125
-601 0 -4 434 -8 965 -8 531 0 965 4 965 8 0 8 -1622 7793 -1656 7950 l-16 72
-952 -1 c-523 -1 -973 -5 -999 -9z m803 -3690 l316 -1475 -428 -3 c-235 -1
-620 -1 -856 0 l-427 3 535 1488 c294 819 537 1483 539 1475 3 -7 147 -677
321 -1488z"/>
</g>
</svg>
